<?xml version="1.0" encoding="UTF-8" standalone="no"?>
<!DOCTYPE svg PUBLIC "-//W3C//DTD SVG 1.1//EN" "http://www.w3.org/Graphics/SVG/1.1/DTD/svg11.dtd">
<svg width="100%" height="100%" viewBox="0 0 400 122" version="1.1" xmlns="http://www.w3.org/2000/svg" xmlns:xlink="http://www.w3.org/1999/xlink" xml:space="preserve" xmlns:serif="http://www.serif.com/" style="fill-rule:evenodd;clip-rule:evenodd;stroke-linejoin:round;stroke-miterlimit:2;">
    <g transform="matrix(1.79036,8.0007e-18,-8.0007e-18,1.79036,-765.407,-797.638)">
        <path d="M584.22,498.991C580.91,498.157 578.704,497.183 577.601,496.067C576.497,494.952 575.946,493.707 575.946,492.334C575.946,491.231 576.24,490.385 576.828,489.797C577.417,489.208 580.101,487.553 584.882,484.832C582.455,483.385 580.788,481.988 579.881,480.639C578.704,478.874 578.115,477.133 578.115,475.417C578.115,473.873 578.434,472.23 579.072,470.489C580.445,467.988 582.326,466.119 584.717,464.881C587.107,463.643 590.19,463.023 593.966,463.023C595.486,463.023 596.798,463.122 597.901,463.318C598.416,463.416 599.274,463.685 600.476,464.127L601.873,464.642C603.124,465.426 604.215,466.235 605.146,467.069C607.255,466.652 608.959,466.223 610.258,465.782C611.165,465.512 611.95,465.377 612.612,465.377C613.102,465.377 613.495,465.586 613.789,466.002C614.083,466.419 614.23,467.4 614.23,468.944C614.23,470.293 614.046,471.231 613.678,471.758C613.311,472.285 612.931,472.549 612.538,472.549C612.391,472.549 611.962,472.377 611.251,472.034C609.584,471.274 608.248,470.869 607.243,470.82C607.831,472.512 608.125,474.118 608.125,475.638C608.125,477.428 607.604,479.138 606.562,480.768C605.52,482.399 604.092,483.692 602.278,484.648C599.752,485.997 597.227,486.671 594.702,486.671C593.084,486.671 591.98,486.634 591.392,486.561C590.534,486.462 589.332,486.242 587.788,485.899C585.704,487.051 584.245,488.032 583.411,488.841C582.994,489.233 582.786,489.699 582.786,490.238C582.786,490.729 583.001,491.17 583.43,491.562C583.859,491.954 584.576,492.224 585.581,492.371C585.777,492.396 586.047,492.445 586.39,492.518C587.69,492.616 589.418,492.665 591.576,492.665C591.845,492.665 592.716,492.629 594.187,492.555C594.604,492.531 594.959,492.518 595.253,492.518C601.113,492.518 605.22,493.45 607.574,495.313C609.903,497.177 611.067,499.457 611.067,502.154C611.067,503.6 610.657,505.016 609.835,506.402C609.014,507.787 607.905,508.915 606.507,509.785C605.109,510.655 603.093,511.434 600.457,512.12C597.822,512.807 594.996,513.15 591.98,513.15C588.719,513.15 585.796,512.831 583.209,512.194C580.622,511.556 578.593,510.514 577.122,509.068C575.995,507.989 575.431,506.837 575.431,505.611C575.431,504.409 575.903,503.337 576.847,502.393C577.791,501.449 580.248,500.315 584.22,498.991ZM595.511,510.649C599.139,510.232 601.959,509.252 603.969,507.707C605.244,506.702 605.882,505.709 605.882,504.728C605.882,504.189 605.747,503.662 605.477,503.147C605.208,502.632 604.723,502.123 604.025,501.621C603.326,501.118 602.535,500.769 601.652,500.572C600.402,500.327 598.747,500.205 596.688,500.205L592.164,500.131C588.192,500.131 585.526,500.621 584.165,501.602C582.804,502.583 582.124,503.882 582.124,505.501C582.124,506.359 582.504,507.211 583.264,508.057C584.024,508.902 585.299,509.57 587.089,510.061C588.879,510.551 590.803,510.796 592.863,510.796C593.451,510.796 594.334,510.747 595.511,510.649ZM535.491,499.947L574.033,499.947L574.033,503.698L535.491,503.698L535.491,499.947ZM646.257,467.253C647.828,468.773 649.001,470.52 649.774,472.493C650.547,474.467 650.933,476.324 650.933,478.065C650.933,481.35 650.43,483.998 649.424,486.009C647.902,489.049 645.853,491.292 643.275,492.739C640.698,494.186 637.704,494.909 634.292,494.909C630.463,494.909 627.217,494.051 624.554,492.334C621.891,490.618 619.989,488.669 618.847,486.487C617.706,484.305 617.135,481.596 617.135,478.359C617.135,476.717 617.405,475.068 617.945,473.413C618.485,471.758 619.228,470.317 620.173,469.092C621.118,467.866 622.155,466.836 623.284,466.002C624.928,464.826 626.579,463.986 628.236,463.483C629.893,462.981 631.899,462.729 634.255,462.729C639.385,462.729 643.386,464.237 646.257,467.253ZM482.708,478.04L490.596,479.852L490.477,489.627C490.477,490.192 490.575,490.659 490.771,491.027C491.016,491.194 491.69,491.367 492.793,491.547L494.596,491.893C494.816,492.207 494.927,492.593 494.927,493.052C494.927,493.342 494.914,493.74 494.89,494.247L487.682,493.732L485.548,493.806L483.857,493.806L479.002,494.137L477.752,494.137C477.727,493.828 477.715,493.591 477.715,493.425C477.715,492.998 477.74,492.535 477.789,492.037C478.132,491.964 478.99,491.841 480.363,491.669C480.731,491.62 481.135,491.534 481.577,491.412C482.067,491.215 482.349,491.019 482.422,490.822C482.619,490.405 482.717,489.607 482.717,488.429C482.717,486.366 482.704,484.782 482.68,483.678L482.717,479.406C482.717,478.934 482.714,478.479 482.708,478.04ZM460.75,472.997L468.721,474.827L468.668,476.601L468.816,482.486L468.742,483.406C468.742,487.403 468.902,489.659 469.224,490.174C469.545,490.689 470.769,491.262 472.896,491.893C472.97,492.31 473.008,492.616 473.008,492.813C473.008,493.107 472.921,493.56 472.748,494.173C471.986,494.198 471.347,494.21 470.831,494.21C470.315,494.21 469.505,494.127 468.399,493.962L464.456,493.879C462.491,493.879 459.653,493.965 455.943,494.137C455.845,493.895 455.796,493.642 455.796,493.376C455.796,493.183 455.808,492.797 455.833,492.218C456.47,491.923 457.059,491.727 457.598,491.629C458.947,491.408 459.731,491.224 459.952,491.076C460.32,490.855 460.565,490.585 460.687,490.266C460.835,489.775 460.908,488.695 460.908,487.025L460.908,483.822L460.945,481.207L460.835,477.34L460.835,475.021C460.835,474.282 460.807,473.607 460.75,472.997ZM518.767,486.321L532.396,489.451L533.475,490.532C533.989,490.892 535.004,491.407 536.521,492.077C536.545,492.775 536.558,493.187 536.558,493.312C536.558,493.512 536.545,493.811 536.521,494.21C536.252,494.21 535.457,494.149 534.136,494.026C533.377,493.928 532.716,493.879 532.154,493.879C527.065,493.879 522.722,493.94 519.126,494.063C519.126,493.689 519.101,493.402 519.052,493.203L519.015,492.642C519.015,492.468 519.077,492.193 519.199,491.82C519.811,491.612 520.631,491.462 521.658,491.37C522.074,491.347 522.527,491.301 523.016,491.231C522.65,490.569 522.197,489.956 521.658,489.392L518.767,486.321ZM434.326,466.928L444.261,469.21L444.285,475.454L444.101,480.382L444.248,487.737L444.138,489.135C444.138,489.331 444.211,489.613 444.358,489.981C445.845,490.299 447.198,490.52 448.417,490.643C448.637,490.667 449.38,490.765 450.648,490.937C450.746,491.672 450.794,492.285 450.794,492.776C450.794,493.045 450.782,493.462 450.758,494.026C450.439,494.026 450.195,494.038 450.023,494.063C449.24,494.112 448.787,494.137 448.665,494.137C448.493,494.137 448.175,494.1 447.71,494.026C447.367,493.977 445.74,493.806 442.827,493.511L436.327,493.438C435.03,493.438 433.145,493.56 430.672,493.806C429.057,493.953 428.004,494.038 427.515,494.063L427.515,491.415C428.002,491.268 428.806,491.06 429.927,490.79C431.511,490.398 432.693,489.993 433.473,489.576C433.914,488.816 434.135,487.762 434.135,486.413L434.098,482.074L434.171,473.689L434.135,471.703C434.215,469.718 434.279,468.126 434.326,466.928ZM502.257,482.529L510.079,484.326L510.079,487.995C510.079,488.215 510.103,488.62 510.152,489.208L510.189,490.569C510.679,490.902 511.059,491.116 511.329,491.211C511.746,491.354 512.53,491.484 513.683,491.604C514.001,491.627 514.296,491.675 514.565,491.746L514.565,492.695L514.639,493.379C514.639,493.505 514.602,493.707 514.528,493.986L514.271,494.1C512.015,494.017 510.226,493.92 508.902,493.81C508.191,493.758 507.627,493.732 507.21,493.732C506.989,493.732 506.45,493.744 505.592,493.769L503.495,493.769L500.333,494.034L499.377,494L497.207,494.1C497.109,493.683 497.06,493.303 497.06,492.96C497.06,492.69 497.072,492.347 497.096,491.93C497.538,491.709 497.979,491.562 498.42,491.489C498.862,491.415 499.18,491.354 499.377,491.305C500.799,491.158 501.62,491.036 501.841,490.938C502.012,490.424 502.122,489.616 502.172,488.515L502.257,482.529ZM626.146,479.961C626.366,483.005 626.526,484.761 626.624,485.227C626.943,486.872 627.445,488.283 628.132,489.462C628.598,490.223 629.37,490.898 630.449,491.487C631.527,492.077 632.815,492.371 634.31,492.371C636.1,492.371 637.608,491.8 638.834,490.659C640.06,489.517 640.942,487.731 641.482,485.3C641.825,483.705 641.997,481.09 641.997,477.457C641.997,472.988 641.261,469.827 639.79,467.974C638.319,466.12 636.382,465.193 633.979,465.193C632.091,465.193 630.528,465.721 629.29,466.777C628.052,467.832 627.188,469.391 626.697,471.454C626.379,472.779 626.195,475.615 626.146,479.961ZM593.414,484.207C595.057,484.207 596.461,483.502 597.625,482.092C598.79,480.682 599.372,478.494 599.372,475.528C599.372,471.605 598.851,468.969 597.809,467.621C596.767,466.272 595.302,465.598 593.414,465.598C593.169,465.598 592.52,465.659 591.465,465.782C590.288,466.002 589.216,466.836 588.247,468.283C587.279,469.729 586.795,471.666 586.795,474.093C586.795,474.755 586.881,476.067 587.052,478.028C587.126,478.862 587.31,479.585 587.604,480.198C588.021,481.154 588.474,481.896 588.965,482.423C589.455,482.95 590.111,483.379 590.932,483.71C591.753,484.041 592.581,484.207 593.414,484.207ZM511.382,477.357C512.796,476.467 514.967,475.055 517.894,473.12C519.222,472.238 520.709,471.134 522.356,469.81C523.041,469.278 523.542,468.842 523.86,468.503C523.468,468.327 523.089,468.189 522.722,468.089C521.793,467.863 520.68,467.486 519.383,466.959C519.359,466.622 519.346,466.369 519.346,466.201C519.346,465.961 519.383,465.588 519.457,465.083L522.172,465.046C522.393,465.046 523.023,465.077 524.062,465.138C525.102,465.199 526.148,465.23 527.2,465.23C528.056,465.23 529.261,465.175 530.815,465.065C532.368,464.954 533.328,464.899 533.695,464.899C534.087,464.899 534.674,464.924 535.457,464.973C535.481,465.242 535.494,465.438 535.494,465.561C535.494,465.806 535.445,466.149 535.347,466.591L532.448,467.525C530.857,467.998 529.646,468.471 528.815,468.944C526.777,470.091 523.34,472.299 518.504,475.568C519.092,476.182 519.705,476.797 520.343,477.411L521.299,478.296L523.034,480.033L511.382,477.357ZM502.36,475.285L502.392,472.988L502.392,470.895L502.429,469.317L502.429,458.781C502.429,456.286 502.343,454.487 502.172,453.386C502.147,453.116 502.061,452.713 501.914,452.174C501.424,451.758 500.946,451.469 500.48,451.31C500.014,451.151 499.033,450.985 497.538,450.814C497.513,450.495 497.501,450.25 497.501,450.078C497.501,449.808 497.525,449.416 497.574,448.901C498.528,448.582 501.218,447.835 505.643,446.658C506.866,446.315 507.954,445.935 508.907,445.518L510.41,445.591L510.483,461.893C510.483,462.016 510.446,462.799 510.373,464.243C510.348,464.757 510.336,465.773 510.336,467.291L510.262,472.798L510.262,477.1L502.36,475.285ZM468.949,467.612C470.842,466.009 472.571,464.884 474.138,464.238C476.317,463.33 478.385,462.876 480.343,462.876C482.644,462.876 484.664,463.447 486.402,464.59C488.139,465.732 489.278,467.052 489.816,468.551C490.121,469.398 490.339,470.733 490.471,472.554L482.057,470.622C481.958,470.256 481.848,469.955 481.727,469.72C480.797,467.879 479.403,466.959 477.545,466.959C476.175,466.959 474.757,467.308 473.29,468.008C473.024,468.135 472.756,468.274 472.487,468.424L468.949,467.612ZM460.648,465.705C461.544,465.371 462.145,465.126 462.453,464.973C462.575,464.899 462.771,464.789 463.041,464.642C463.335,464.396 463.666,464.151 464.034,463.906C464.77,463.391 465.652,462.496 466.682,461.221L468.668,461.074L468.594,465.231C468.545,465.647 468.521,465.979 468.521,466.224C468.521,466.391 468.539,466.825 468.574,467.526L460.648,465.705ZM434.361,459.668L434.355,459.309L434.466,457.323L434.282,453.131L434.208,451.549C434.184,451.304 434.098,450.912 433.951,450.372C432.946,449.906 431.315,449.612 429.059,449.49C428.52,449.465 428.091,449.428 427.772,449.379L427.699,446.143L438.213,446.584C439.512,446.633 440.321,446.658 440.64,446.658C442.086,446.658 444.402,446.56 447.589,446.364C449.378,446.241 450.505,446.167 450.971,446.143C451,446.609 451.015,447.001 451.015,447.32C451.015,447.737 450.986,448.276 450.927,448.938C449.948,449.281 448.829,449.606 447.569,449.913C446.309,450.219 445.275,450.532 444.468,450.85C444.321,451.488 444.248,452.407 444.248,453.609C444.248,454.663 444.285,455.521 444.358,456.183C444.319,458.37 444.291,460.29 444.273,461.944L434.361,459.668Z" style="fill:rgb(237,215,93);fill-rule:nonzero;"/>
    </g>
</svg>
